<svg xmlns="http://www.w3.org/2000/svg" viewBox="0 0 960 720" role="img" aria-labelledby="title desc">
  <title id="title">anylumino dashboard composition</title>
  <desc id="desc">A stylized dashboard made from tabs, split panes, controls, and chart panels.</desc>
  <defs>
    <linearGradient id="bg" x1="0" y1="0" x2="1" y2="1">
      <stop offset="0" stop-color="#071014"/>
      <stop offset="1" stop-color="#14202a"/>
    </linearGradient>
    <linearGradient id="teal" x1="0" y1="0" x2="1" y2="1">
      <stop offset="0" stop-color="#2dd4bf"/>
      <stop offset="1" stop-color="#0f766e"/>
    </linearGradient>
    <linearGradient id="amber" x1="0" y1="0" x2="1" y2="1">
      <stop offset="0" stop-color="#fbbf24"/>
      <stop offset="1" stop-color="#b45309"/>
    </linearGradient>
    <filter id="glow" x="-30%" y="-30%" width="160%" height="160%">
      <feGaussianBlur stdDeviation="5" result="blur"/>
      <feMerge>
        <feMergeNode in="blur"/>
        <feMergeNode in="SourceGraphic"/>
      </feMerge>
    </filter>
  </defs>
  <rect width="960" height="720" rx="34" fill="url(#bg)"/>
  <rect x="28" y="28" width="904" height="664" rx="26" fill="none" stroke="#38bdf8" stroke-opacity=".55" stroke-width="2"/>
  <g opacity=".5" stroke="#334155" stroke-width="1">
    <path d="M90 120H870M90 240H870M90 360H870M90 480H870M90 600H870"/>
    <path d="M180 90V635M330 90V635M480 90V635M630 90V635M780 90V635"/>
  </g>
  <g>
    <rect x="92" y="76" width="155" height="48" rx="16" fill="#10202a" stroke="#2dd4bf" stroke-width="2"/>
    <rect x="260" y="76" width="155" height="48" rx="16" fill="#111827" stroke="#64748b"/>
    <rect x="428" y="76" width="155" height="48" rx="16" fill="#111827" stroke="#64748b"/>
    <circle cx="122" cy="100" r="8" fill="#2dd4bf" filter="url(#glow)"/>
  </g>
  <g>
    <rect x="80" y="148" width="265" height="420" rx="18" fill="#0b1620" stroke="#64748b"/>
    <rect x="104" y="180" width="218" height="72" rx="12" fill="#102831" stroke="#2dd4bf" stroke-width="2"/>
    <rect x="104" y="274" width="218" height="72" rx="12" fill="#111827" stroke="#334155"/>
    <rect x="104" y="368" width="218" height="72" rx="12" fill="#111827" stroke="#334155"/>
    <rect x="128" y="203" width="34" height="34" rx="8" fill="url(#teal)"/>
    <rect x="128" y="297" width="34" height="34" rx="8" fill="url(#amber)"/>
    <rect x="128" y="391" width="34" height="34" rx="8" fill="#2563eb"/>
    <g fill="#64748b">
      <rect x="178" y="203" width="96" height="10" rx="5"/>
      <rect x="178" y="224" width="122" height="10" rx="5"/>
      <rect x="178" y="297" width="96" height="10" rx="5"/>
      <rect x="178" y="318" width="122" height="10" rx="5"/>
      <rect x="178" y="391" width="96" height="10" rx="5"/>
      <rect x="178" y="412" width="122" height="10" rx="5"/>
    </g>
  </g>
  <g>
    <rect x="378" y="148" width="502" height="235" rx="18" fill="#0b1620" stroke="#64748b"/>
    <rect x="408" y="178" width="424" height="155" rx="10" fill="#071014" stroke="#334155"/>
    <path d="M420 300C468 276 493 238 544 258C600 280 622 210 673 226C718 240 735 186 790 204C826 215 838 184 858 170" fill="none" stroke="#2dd4bf" stroke-width="5" stroke-linecap="round" filter="url(#glow)"/>
    <path d="M420 318C492 290 542 306 602 264C676 214 707 302 858 230" fill="none" stroke="#fbbf24" stroke-width="4" stroke-linecap="round" opacity=".85"/>
    <g fill="#334155">
      <rect x="420" y="344" width="88" height="8" rx="4"/>
      <rect x="526" y="344" width="88" height="8" rx="4"/>
      <rect x="632" y="344" width="88" height="8" rx="4"/>
      <rect x="738" y="344" width="88" height="8" rx="4"/>
    </g>
  </g>
  <g>
    <rect x="378" y="412" width="236" height="156" rx="18" fill="#0b1620" stroke="#64748b"/>
    <rect x="414" y="456" width="164" height="12" rx="6" fill="#1e293b"/>
    <rect x="414" y="503" width="164" height="12" rx="6" fill="#1e293b"/>
    <rect x="414" y="550" width="164" height="12" rx="6" fill="#1e293b"/>
    <circle cx="500" cy="462" r="15" fill="url(#teal)" filter="url(#glow)"/>
    <circle cx="535" cy="509" r="15" fill="url(#amber)" filter="url(#glow)"/>
    <circle cx="486" cy="556" r="15" fill="#94a3b8"/>
  </g>
  <g>
    <rect x="644" y="412" width="236" height="156" rx="18" fill="#0b1620" stroke="#64748b"/>
    <circle cx="735" cy="490" r="54" fill="none" stroke="#2dd4bf" stroke-width="30" stroke-dasharray="120 220"/>
    <circle cx="735" cy="490" r="54" fill="none" stroke="#fbbf24" stroke-width="30" stroke-dasharray="80 260" stroke-dashoffset="-125"/>
    <circle cx="735" cy="490" r="54" fill="none" stroke="#334155" stroke-width="30" stroke-dasharray="80 260" stroke-dashoffset="-220"/>
    <rect x="812" y="456" width="42" height="9" rx="4" fill="#64748b"/>
    <rect x="812" y="492" width="42" height="9" rx="4" fill="#64748b"/>
    <rect x="812" y="528" width="42" height="9" rx="4" fill="#64748b"/>
  </g>
  <g>
    <rect x="80" y="600" width="800" height="58" rx="16" fill="#101820" stroke="#64748b"/>
    <rect x="112" y="622" width="132" height="12" rx="6" fill="#64748b"/>
    <rect x="270" y="622" width="260" height="12" rx="6" fill="#1e293b"/>
    <circle cx="614" cy="628" r="14" fill="url(#amber)" filter="url(#glow)"/>
    <rect x="682" y="613" width="56" height="30" rx="8" fill="#102831" stroke="#2dd4bf"/>
    <rect x="758" y="613" width="56" height="30" rx="8" fill="#111827" stroke="#64748b"/>
  </g>
</svg>
